<svg width="400" height="300" xmlns="http://www.w3.org/2000/svg">
  <rect width="400" height="300" fill="#e2e8f0"/>
  <rect x="60" y="120" width="280" height="100" rx="20" fill="#94a3b8"/>
  <rect x="80" y="100" width="80" height="60" rx="10" fill="#64748b"/>
  <rect x="240" y="100" width="80" height="60" rx="10" fill="#64748b"/>
  <circle cx="120" cy="230" r="25" fill="#475569"/>
  <circle cx="280" cy="230" r="25" fill="#475569"/>
  <circle cx="120" cy="230" r="12" fill="#334155"/>
  <circle cx="280" cy="230" r="12" fill="#334155"/>
  <!-- hail damage indicators -->
  <circle cx="150" cy="110" r="4" fill="#ef4444" opacity="0.6"/>
  <circle cx="180" cy="105" r="3" fill="#ef4444" opacity="0.6"/>
  <circle cx="210" cy="108" r="5" fill="#ef4444" opacity="0.6"/>
  <circle cx="240" cy="103" r="3" fill="#ef4444" opacity="0.6"/>
  <circle cx="170" cy="130" r="4" fill="#ef4444" opacity="0.6"/>
  <circle cx="200" cy="125" r="3" fill="#ef4444" opacity="0.6"/>
  <circle cx="230" cy="128" r="4" fill="#ef4444" opacity="0.6"/>
  <circle cx="160" cy="145" r="3" fill="#ef4444" opacity="0.6"/>
  <circle cx="220" cy="140" r="5" fill="#ef4444" opacity="0.6"/>
  <text x="200" y="30" text-anchor="middle" font-family="system-ui" font-size="14" fill="#64748b">Hail Damage</text>
  <text x="200" y="280" text-anchor="middle" font-family="system-ui" font-size="11" fill="#94a3b8">Placeholder Image</text>
</svg>
